<?xml version="1.0" encoding="utf-8"?>
<!-- Generator: Adobe Illustrator 27.5.0, SVG Export Plug-In . SVG Version: 6.00 Build 0)  -->
<svg version="1.1" xmlns="http://www.w3.org/2000/svg" xmlns:xlink="http://www.w3.org/1999/xlink" x="0px" y="0px"
	 viewBox="0 0 1000 700" style="enable-background:new 0 0 1000 700;" xml:space="preserve">
<g id="Bg">
	
		<rect transform="matrix(-1 -1.224647e-16 1.224647e-16 -1 1000 700)" style="opacity:0.79;fill:#EDF2F4;" width="1000" height="700"/>
</g>
<g id="Object">
	<g>
		<defs>
			<rect id="SVGID_1_" transform="matrix(-1 -1.224647e-16 1.224647e-16 -1 1000 700)" width="1000" height="700"/>
		</defs>
		<clipPath id="SVGID_00000074427460877224997590000000063260538989246377_">
			<use xlink:href="#SVGID_1_"  style="overflow:visible;"/>
		</clipPath>
		<g style="opacity:0.79;clip-path:url(#SVGID_00000074427460877224997590000000063260538989246377_);">
			<path style="fill:#41607A;" d="M209.539,425.309c-19.382-19.382-45.151-30.057-72.562-30.057
				c-27.411,0-53.18,10.674-72.562,30.057c-19.382,19.382-30.056,45.152-30.056,72.562c0,27.41,10.674,53.18,30.056,72.562
				s45.152,30.056,72.562,30.056c27.41,0,53.18-10.674,72.562-30.056s30.056-45.152,30.056-72.562
				C239.595,470.461,228.921,444.691,209.539,425.309z M66.378,427.272c18.858-18.858,43.93-29.243,70.599-29.243
				c26.669,0,51.741,10.385,70.599,29.243c18.858,18.858,29.243,43.93,29.243,70.599c0,26.669-10.385,51.741-29.243,70.599
				c-18.858,18.858-43.93,29.243-70.599,29.243c-26.669,0-51.742-10.385-70.599-29.243c-18.858-18.858-29.243-43.93-29.243-70.599
				C37.135,471.202,47.52,446.13,66.378,427.272z"/>
			<g>
				<g>
					<path style="fill:#41607A;" d="M136.977,568.504c-38.947,0-70.633-31.686-70.633-70.633c0-38.947,31.686-70.633,70.633-70.633
						c38.947,0,70.633,31.686,70.633,70.633C207.61,536.818,175.924,568.504,136.977,568.504z M136.977,427.701
						c-38.692,0-70.171,31.478-70.171,70.17c0,38.692,31.479,70.171,70.171,70.171c38.692,0,70.171-31.478,70.171-70.171
						C207.148,459.179,175.669,427.701,136.977,427.701z"/>
					<path style="fill:#41607A;" d="M136.977,568.967c-39.203,0-71.096-31.894-71.096-71.096c0-39.202,31.894-71.096,71.096-71.096
						c39.202,0,71.096,31.894,71.096,71.096C208.073,537.073,176.179,568.967,136.977,568.967z M136.977,428.163
						c-38.437,0-69.708,31.271-69.708,69.708c0,38.437,31.271,69.708,69.708,69.708c38.437,0,69.708-31.271,69.708-69.708
						C206.685,459.434,175.414,428.163,136.977,428.163z"/>
				</g>
			</g>
			<circle style="fill:#41607A;" cx="136.977" cy="497.871" r="5.599"/>
			<g>
				<polygon style="fill:#41607A;" points="237.408,681.772 136.977,496.658 36.546,681.772 34.92,680.89 136.977,492.777 
					239.035,680.89 				"/>
			</g>
			<g>
				
					<rect x="136.514" y="378.202" transform="matrix(0.7297 -0.6838 0.6838 0.7297 -303.4011 228.2315)" style="fill:#41607A;" width="0.925" height="239.338"/>
			</g>
			<g>
				
					<rect x="136.514" y="378.202" transform="matrix(0.9431 -0.3324 0.3324 0.9431 -157.7095 73.8449)" style="fill:#41607A;" width="0.925" height="239.338"/>
			</g>
			<g>
				
					<rect x="17.308" y="497.409" transform="matrix(0.7298 -0.6837 0.6837 0.7298 -303.381 228.1987)" style="fill:#41607A;" width="239.338" height="0.925"/>
			</g>
			<g>
				
					<rect x="136.514" y="378.202" transform="matrix(0.0325 -0.9995 0.9995 0.0325 -365.0813 618.6013)" style="fill:#41607A;" width="0.925" height="239.338"/>
			</g>
			<g>
				
					<rect x="17.308" y="497.408" transform="matrix(0.0324 -0.9995 0.9995 0.0324 -365.0732 618.6356)" style="fill:#41607A;" width="239.338" height="0.925"/>
			</g>
			<g>
				
					<rect x="17.308" y="497.409" transform="matrix(0.38 -0.925 0.925 0.38 -375.6006 435.4003)" style="fill:#41607A;" width="239.338" height="0.925"/>
			</g>
			<g>
				
					<rect x="17.308" y="497.408" transform="matrix(0.9384 -0.3457 0.3457 0.9384 -163.6555 78.0396)" style="fill:#41607A;" width="239.338" height="0.925"/>
			</g>
			<g>
				
					<rect x="136.514" y="378.202" transform="matrix(0.4191 -0.9079 0.9079 0.4191 -372.4648 413.5648)" style="fill:#41607A;" width="0.925" height="239.338"/>
			</g>
			<g>
				<rect x="26.671" y="679.48" style="fill:#41607A;" width="220.611" height="5.255"/>
				<rect x="22.258" y="682.126" style="fill:#41607A;" width="229.438" height="5.255"/>
			</g>
			<circle style="fill:#41607A;" cx="54.928" cy="410.548" r="8.328"/>
			<circle style="fill:#41607A;" cx="28.326" cy="448.196" r="8.328"/>
			<circle style="fill:#41607A;" cx="16.178" cy="493.983" r="8.328"/>
			<circle style="fill:#41607A;" cx="24.678" cy="539.218" r="8.328"/>
			
				<ellipse transform="matrix(0.9239 -0.3827 0.3827 0.9239 -218.0609 63.1286)" style="fill:#41607A;" cx="49.654" cy="579.696" rx="8.328" ry="8.328"/>
			<circle style="fill:#41607A;" cx="91.517" cy="609.149" r="8.328"/>
			<circle style="fill:#41607A;" cx="133.089" cy="617.477" r="8.328"/>
			<circle style="fill:#41607A;" cx="177.193" cy="610.889" r="8.328"/>
			<circle style="fill:#41607A;" cx="220.419" cy="588.024" r="8.328"/>
			<circle style="fill:#41607A;" cx="247.138" cy="547.546" r="8.328"/>
			<circle style="fill:#41607A;" cx="257.604" cy="501.759" r="8.328"/>
			<circle style="fill:#41607A;" cx="249.276" cy="456.524" r="8.328"/>
			<circle style="fill:#41607A;" cx="224.3" cy="416.046" r="8.328"/>
			<circle style="fill:#41607A;" cx="182.437" cy="386.593" r="8.328"/>
			<circle style="fill:#41607A;" cx="141.417" cy="375.328" r="8.328"/>
			<circle style="fill:#41607A;" cx="96.761" cy="383.656" r="8.328"/>
		</g>
		<polygon style="clip-path:url(#SVGID_00000074427460877224997590000000063260538989246377_);fill:#314766;" points="470,700 
			470,411.93 489.091,406.579 489.091,387.85 520.909,376.256 520.909,344.149 555.455,323.636 572.727,328.096 572.727,361.986 
			586.364,365.554 586.364,381.607 598.182,384.283 598.182,402.12 610,404.795 610,700 		"/>
		<polygon style="opacity:0.79;clip-path:url(#SVGID_00000074427460877224997590000000063260538989246377_);fill:#41607A;" points="
			822,176.61 822,170.248 814,170.248 814,150.182 810.828,150.182 810.828,145.136 772.8,145.136 772.8,139.286 754.4,139.286 
			754.4,145.136 751.2,145.136 751.2,136.741 732.8,136.741 732.8,145.136 725.172,145.136 725.172,150.182 722,150.182 
			722,170.248 714,170.248 714,176.61 710,176.61 710,700 826,700 826,176.61 		"/>
		<polygon style="clip-path:url(#SVGID_00000074427460877224997590000000063260538989246377_);fill:#314766;" points="
			960.284,390.043 960.284,375.466 1065,331.465 1065,375.466 1065,397.466 1065,700 906.956,700 906.956,397.466 		"/>
		
			<linearGradient id="SVGID_00000005255702644154650500000012298077641501191343_" gradientUnits="userSpaceOnUse" x1="-80" y1="700" x2="-80" y2="436" gradientTransform="matrix(-1 0 0 1 -122 0)">
			<stop  offset="0.0815" style="stop-color:#403E40"/>
			<stop  offset="0.4715" style="stop-color:#444244"/>
			<stop  offset="0.8768" style="stop-color:#504F50"/>
			<stop  offset="1" style="stop-color:#555455"/>
		</linearGradient>
		
			<polygon style="clip-path:url(#SVGID_00000074427460877224997590000000063260538989246377_);fill:url(#SVGID_00000005255702644154650500000012298077641501191343_);" points="
			-100.087,436 30,457 30,700 -100.087,700 -114,700 -114,463.683 		"/>
		<polygon style="clip-path:url(#SVGID_00000074427460877224997590000000063260538989246377_);fill:#314766;" points="350,308.345 
			350,289.609 346.273,289.422 346.273,282.41 324.841,277.119 285.705,277.119 244.706,283.468 229.797,290.875 229.797,296.465 
			226.069,296.746 226.069,314.59 229.797,313.876 229.797,319.708 226.069,320.835 226.069,700 350,700 350,315.482 
			346.273,314.845 346.273,308.345 		"/>
		<path style="clip-path:url(#SVGID_00000074427460877224997590000000063260538989246377_);fill:#213244;" d="M1011.714,553
			l-5.143,1.51v5.286l-24.857-3.775L962,558.286v72.125l-10.5,7.808V513l-19-8h-17v-4h-28v5h-27v162h-35V566.683
			c0-3.417-3.095-6.187-6.913-6.187l-0.087,0.448v-13.461c0-1.703-1.542-3.083-3.445-3.083c-22.684-1.2-45.426-1.2-68.109,0
			c-1.903,0-3.445,1.38-3.445,3.083v13.461l-0.087-0.448c-3.818,0-6.913,2.77-6.913,6.187V622H721V521l-25-14h-14v-14h-70v11h-72v6
			h-23v11h-27v126h-55v-46.146h-15V593h-9.25l-1.458-21.039c0.122-0.17,0.11-0.407-0.039-0.562l-0.727-10.477
			c0.06-0.134,0.051-0.29-0.029-0.416l-1.192-17.202v0l-0.67-9.667h2.741v-1.176h-5.438v-12.433c0.85-0.253,1.47-1.039,1.47-1.971
			c0-1.136-0.921-2.058-2.058-2.058c-1.136,0-2.058,0.921-2.058,2.058c0,0.932,0.62,1.718,1.47,1.971v12.433h-5.291v1.176h2.259
			l0.021,0.03L394.758,593H351h-46v7.2h-9v11.127h-11V682h-17V432h3v-6h-7v-12h-71v12h-7v6h3.962v20.606h-19.509l-17.884,14.441V629
			H135.5v-82l-26-11h-67l-29,10v128H-1v27h14.5H89h28h18.5h17.069H175h82h11h17h19h123h8h55h30h186h15h15.5H765h50h10.5h35H898h39
			h14.5H962h27h27V554.51L1011.714,553z M403.371,593h-1.279l0.643-0.668L403.371,593z M396.678,584.688l6.332-6.383l6.046,6.189
			l-6.318,6.563L396.678,584.688z M409.345,585.466l0.522,7.534h-5.279l-1.241-1.304L409.345,585.466z M409.2,583.377l-5.568-5.7
			l4.836-4.875L409.2,583.377z M403.015,577.047l-5.217-5.34l5.259-5.266l5.257,5.264L403.015,577.047z M407.503,560.742
			l-4.446,4.451l-4.445-4.451l4.446-4.446L407.503,560.742z M399.418,551.41l3.672-3.672l3.608,3.67l-3.642,3.642L399.418,551.41z
			 M408.304,570.446l-4.623-4.629l4.023-4.028L408.304,570.446z M407.548,559.539l-3.867-3.867l3.365-3.365L407.548,559.539z
			 M406.912,550.365l-3.198-3.251l2.78-2.78L406.912,550.365z M406.315,541.742l-2.696-3.962l2.193-3.29L406.315,541.742z
			 M405.32,533.637l-2.238,3.357l-2.285-3.357H405.32z M400.539,534.824l2.016,2.961l-2.592,3.887L400.539,534.824z M403.09,538.572
			l3.207,4.711l-3.201,3.201l-3.147-3.201L403.09,538.572z M399.739,544.329l2.733,2.779l-3.24,3.24L399.739,544.329z
			 M399.068,552.306l3.366,3.366l-3.985,3.985L399.068,552.306z M398.281,561.658l4.153,4.159l-4.918,4.924L398.281,561.658z
			 M397.366,572.527l5.027,5.146l-5.967,6.016L397.366,572.527z M396.271,585.539l5.855,6.153L400.868,593h-5.225L396.271,585.539z"
			/>
	</g>
</g>
</svg>
